COMMAND: ffmpeg -hide_banner -loglevel info -rw_timeout 90000000 -analyzeduration 100M -probesize 100M -reconnect 1 -reconnect_streamed 1 -reconnect_delay_max 5 -ss 0:07:41 -i http://127.0.0.1:48275/ -t 00:01:09 -map 0:v:0 -map 0:a:0? -sn -c:v libx264 -preset fast -c:a aac -y clips/Alien_clip.mp4

Input #0, matroska,webm, from 'http://127.0.0.1:48275/':
  Metadata:
    encoder         : libebml v1.3.0 + libmatroska v1.4.1
    creation_time   : 2018-10-12T09:12:31.000000Z
  Duration: 01:56:37.66, start: 0.000000, bitrate: 3363 kb/s
  Stream #0:0: Video: h264 (High), yuv420p(progressive), 1136x484 [SAR 1:1 DAR 284:121], 23.98 fps, 23.98 tbr, 1k tbn (default)
    Metadata:
      BPS             : 2721835
      BPS-eng         : 2721835
      DURATION        : 01:56:37.532000000
      DURATION-eng    : 01:56:37.532000000
      NUMBER_OF_FRAMES: 167773
      NUMBER_OF_FRAMES-eng: 167773
      NUMBER_OF_BYTES : 2380766379
      NUMBER_OF_BYTES-eng: 2380766379
      _STATISTICS_WRITING_APP: mkvmerge v7.4.0 ('Circles') 64bit built on Dec 12 2014 12:19:56
      _STATISTICS_WRITING_APP-eng: mkvmerge v7.4.0 ('Circles') 64bit built on Dec 12 2014 12:19:56
      _STATISTICS_WRITING_DATE_UTC: 2018-10-12 09:12:31
      _STATISTICS_WRITING_DATE_UTC-eng: 2018-10-12 09:12:31
      _STATISTICS_TAGS: BPS DURATION NUMBER_OF_FRAMES NUMBER_OF_BYTES
      _STATISTICS_TAGS-eng: BPS DURATION NUMBER_OF_FRAMES NUMBER_OF_BYTES
  Stream #0:1(rus): Audio: ac3, 48000 Hz, stereo, fltp, 192 kb/s (default)
    Metadata:
      title           : MVO (Селена Интернешнл / ОРТ / Первый канал)
      BPS             : 192000
      BPS-eng         : 192000
      DURATION        : 01:56:37.664000000
      DURATION-eng    : 01:56:37.664000000
      NUMBER_OF_FRAMES: 218677
      NUMBER_OF_FRAMES-eng: 218677
      NUMBER_OF_BYTES : 167943936
      NUMBER_OF_BYTES-eng: 167943936
      _STATISTICS_WRITING_APP: mkvmerge v7.4.0 ('Circles') 64bit built on Dec 12 2014 12:19:56
      _STATISTICS_WRITING_APP-eng: mkvmerge v7.4.0 ('Circles') 64bit built on Dec 12 2014 12:19:56
      _STATISTICS_WRITING_DATE_UTC: 2018-10-12 09:12:31
      _STATISTICS_WRITING_DATE_UTC-eng: 2018-10-12 09:12:31
      _STATISTICS_TAGS: BPS DURATION NUMBER_OF_FRAMES NUMBER_OF_BYTES
      _STATISTICS_TAGS-eng: BPS DURATION NUMBER_OF_FRAMES NUMBER_OF_BYTES
  Stream #0:2(eng): Audio: ac3, 48000 Hz, 5.1(side), fltp, 448 kb/s
    Metadata:
      title           : Original Eng
      BPS             : 448000
      BPS-eng         : 448000
      DURATION        : 01:56:37.632000000
      DURATION-eng    : 01:56:37.632000000
      NUMBER_OF_FRAMES: 218676
      NUMBER_OF_FRAMES-eng: 218676
      NUMBER_OF_BYTES : 391867392
      NUMBER_OF_BYTES-eng: 391867392
      _STATISTICS_WRITING_APP: mkvmerge v7.4.0 ('Circles') 64bit built on Dec 12 2014 12:19:56
      _STATISTICS_WRITING_APP-eng: mkvmerge v7.4.0 ('Circles') 64bit built on Dec 12 2014 12:19:56
      _STATISTICS_WRITING_DATE_UTC: 2018-10-12 09:12:31
      _STATISTICS_WRITING_DATE_UTC-eng: 2018-10-12 09:12:31
      _STATISTICS_TAGS: BPS DURATION NUMBER_OF_FRAMES NUMBER_OF_BYTES
      _STATISTICS_TAGS-eng: BPS DURATION NUMBER_OF_FRAMES NUMBER_OF_BYTES
  Stream #0:3(rus): Subtitle: subrip (srt)
    Metadata:
      title           : Rus Sub
      BPS             : 43
      BPS-eng         : 43
      DURATION        : 01:54:43.668000000
      DURATION-eng    : 01:54:43.668000000
      NUMBER_OF_FRAMES: 776
      NUMBER_OF_FRAMES-eng: 776
      NUMBER_OF_BYTES : 37499
      NUMBER_OF_BYTES-eng: 37499
      _STATISTICS_WRITING_APP: mkvmerge v7.4.0 ('Circles') 64bit built on Dec 12 2014 12:19:56
      _STATISTICS_WRITING_APP-eng: mkvmerge v7.4.0 ('Circles') 64bit built on Dec 12 2014 12:19:56
      _STATISTICS_WRITING_DATE_UTC: 2018-10-12 09:12:31
      _STATISTICS_WRITING_DATE_UTC-eng: 2018-10-12 09:12:31
      _STATISTICS_TAGS: BPS DURATION NUMBER_OF_FRAMES NUMBER_OF_BYTES
      _STATISTICS_TAGS-eng: BPS DURATION NUMBER_OF_FRAMES NUMBER_OF_BYTES
  Stream #0:4(eng): Subtitle: subrip (srt)
    Metadata:
      title           : Eng Sub
      BPS             : 30
      BPS-eng         : 30
      DURATION        : 01:49:37.320000000
      DURATION-eng    : 01:49:37.320000000
      NUMBER_OF_FRAMES: 725
      NUMBER_OF_FRAMES-eng: 725
      NUMBER_OF_BYTES : 24671
      NUMBER_OF_BYTES-eng: 24671
      _STATISTICS_WRITING_APP: mkvmerge v7.4.0 ('Circles') 64bit built on Dec 12 2014 12:19:56
      _STATISTICS_WRITING_APP-eng: mkvmerge v7.4.0 ('Circles') 64bit built on Dec 12 2014 12:19:56
      _STATISTICS_WRITING_DATE_UTC: 2018-10-12 09:12:31
      _STATISTICS_WRITING_DATE_UTC-eng: 2018-10-12 09:12:31
      _STATISTICS_TAGS: BPS DURATION NUMBER_OF_FRAMES NUMBER_OF_BYTES
      _STATISTICS_TAGS-eng: BPS DURATION NUMBER_OF_FRAMES NUMBER_OF_BYTES
Stream mapping:
  Stream #0:0 -> #0:0 (h264 (native) -> h264 (libx264))
  Stream #0:1 -> #0:1 (ac3 (native) -> aac (native))
Press [q] to stop, [?] for help
[libx264 @ 0x55600835c780] using SAR=1/1
[libx264 @ 0x55600835c780] using cpu capabilities: MMX2 SSE2Fast SSSE3 SSE4.2 AVX FMA3 BMI2 AVX2
[libx264 @ 0x55600835c780] profile High, level 3.1, 4:2:0, 8-bit
[libx264 @ 0x55600835c780] 264 - core 165 r3222 b35605a - H.264/MPEG-4 AVC codec - Copyleft 2003-2025 - http://www.videolan.org/x264.html - options: cabac=1 ref=2 deblock=1:0:0 analyse=0x3:0x113 me=hex subme=6 psy=1 psy_rd=1.00:0.00 mixed_ref=1 me_range=16 chroma_me=1 trellis=1 8x8dct=1 cqm=0 deadzone=21,11 fast_pskip=1 chroma_qp_offset=-2 threads=15 lookahead_threads=2 sliced_threads=0 nr=0 decimate=1 interlaced=0 bluray_compat=0 constrained_intra=0 bframes=3 b_pyramid=2 b_adapt=1 b_bias=0 direct=1 weightb=1 open_gop=0 weightp=1 keyint=250 keyint_min=23 scenecut=40 intra_refresh=0 rc_lookahead=30 rc=crf mbtree=1 crf=23.0 qcomp=0.60 qpmin=0 qpmax=69 qpstep=4 ip_ratio=1.40 aq=1:1.00
Output #0, mp4, to 'clips/Alien_clip.mp4':
  Metadata:
    encoder         : Lavf62.3.100
  Stream #0:0: Video: h264 (avc1 / 0x31637661), yuv420p(tv, progressive), 1136x484 [SAR 1:1 DAR 284:121], q=2-31, 23.98 fps, 24k tbn (default)
    Metadata:
      encoder         : Lavc62.11.100 libx264
      BPS             : 2721835
      BPS-eng         : 2721835
      DURATION        : 01:56:37.532000000
      DURATION-eng    : 01:56:37.532000000
      NUMBER_OF_FRAMES: 167773
      NUMBER_OF_FRAMES-eng: 167773
      NUMBER_OF_BYTES : 2380766379
      NUMBER_OF_BYTES-eng: 2380766379
      _STATISTICS_WRITING_APP: mkvmerge v7.4.0 ('Circles') 64bit built on Dec 12 2014 12:19:56
      _STATISTICS_WRITING_APP-eng: mkvmerge v7.4.0 ('Circles') 64bit built on Dec 12 2014 12:19:56
      _STATISTICS_WRITING_DATE_UTC: 2018-10-12 09:12:31
      _STATISTICS_WRITING_DATE_UTC-eng: 2018-10-12 09:12:31
      _STATISTICS_TAGS: BPS DURATION NUMBER_OF_FRAMES NUMBER_OF_BYTES
      _STATISTICS_TAGS-eng: BPS DURATION NUMBER_OF_FRAMES NUMBER_OF_BYTES
    Side data:
      cpb: bitrate max/min/avg: 0/0/0 buffer size: 0 vbv_delay: N/A
  Stream #0:1(rus): Audio: aac (LC) (mp4a / 0x6134706D), 48000 Hz, stereo, fltp, 128 kb/s (default)
    Metadata:
      encoder         : Lavc62.11.100 aac
      title           : MVO (Селена Интернешнл / ОРТ / Первый канал)
      BPS             : 192000
      BPS-eng         : 192000
      DURATION        : 01:56:37.664000000
      DURATION-eng    : 01:56:37.664000000
      NUMBER_OF_FRAMES: 218677
      NUMBER_OF_FRAMES-eng: 218677
      NUMBER_OF_BYTES : 167943936
      NUMBER_OF_BYTES-eng: 167943936
      _STATISTICS_WRITING_APP: mkvmerge v7.4.0 ('Circles') 64bit built on Dec 12 2014 12:19:56
      _STATISTICS_WRITING_APP-eng: mkvmerge v7.4.0 ('Circles') 64bit built on Dec 12 2014 12:19:56
      _STATISTICS_WRITING_DATE_UTC: 2018-10-12 09:12:31
      _STATISTICS_WRITING_DATE_UTC-eng: 2018-10-12 09:12:31
      _STATISTICS_TAGS: BPS DURATION NUMBER_OF_FRAMES NUMBER_OF_BYTES
      _STATISTICS_TAGS-eng: BPS DURATION NUMBER_OF_FRAMES NUMBER_OF_BYTES
frame=   75 fps= 30 q=28.0 size=     256KiB time=00:00:03.04 bitrate= 688.9kbits/s speed=1.22x elapsed=0:00:02.50    
frame=  127 fps= 42 q=28.0 size=     768KiB time=00:00:05.21 bitrate=1206.8kbits/s speed=1.74x elapsed=0:00:03.00    
frame=  127 fps= 36 q=28.0 size=     768KiB time=00:00:05.21 bitrate=1206.8kbits/s speed=1.49x elapsed=0:00:03.50    
frame=  127 fps= 32 q=28.0 size=     768KiB time=00:00:05.21 bitrate=1206.8kbits/s speed= 1.3x elapsed=0:00:04.00    
frame=  253 fps= 56 q=28.0 size=    1536KiB time=00:00:10.46 bitrate=1202.0kbits/s speed=2.33x elapsed=0:00:04.50    
frame=  376 fps= 75 q=28.0 size=    2048KiB time=00:00:15.59 bitrate=1075.6kbits/s speed=3.12x elapsed=0:00:05.00    
frame=  401 fps= 73 q=28.0 size=    2304KiB time=00:00:16.64 bitrate=1134.2kbits/s speed=3.03x elapsed=0:00:05.50    
frame=  583 fps= 97 q=28.0 size=    2816KiB time=00:00:24.23 bitrate= 952.0kbits/s speed=4.04x elapsed=0:00:06.00    
frame=  748 fps=115 q=28.0 size=    3328KiB time=00:00:31.11 bitrate= 876.2kbits/s speed=4.79x elapsed=0:00:06.50    
frame=  918 fps=131 q=28.0 size=    4096KiB time=00:00:38.20 bitrate= 878.3kbits/s speed=5.46x elapsed=0:00:07.00    
frame= 1073 fps=143 q=28.0 size=    5120KiB time=00:00:44.66 bitrate= 939.0kbits/s speed=5.95x elapsed=0:00:07.50    
frame= 1250 fps=156 q=28.0 size=    6144KiB time=00:00:52.05 bitrate= 967.0kbits/s speed= 6.5x elapsed=0:00:08.00    
frame= 1415 fps=166 q=28.0 size=    6912KiB time=00:00:58.93 bitrate= 960.8kbits/s speed=6.93x elapsed=0:00:08.50    
frame= 1599 fps=178 q=28.0 size=    7936KiB time=N/A bitrate=N/A speed=N/A elapsed=0:00:09.00    
[out#0/mp4 @ 0x55600835bec0] video:7270KiB audio:1086KiB subtitle:0KiB other streams:0KiB global headers:0KiB muxing overhead: 0.575426%
frame= 1655 fps=182 q=-1.0 Lsize=    8404KiB time=00:01:08.94 bitrate= 998.5kbits/s speed=7.59x elapsed=0:00:09.08    
[libx264 @ 0x55600835c780] frame I:13    Avg QP:19.49  size: 48702
[libx264 @ 0x55600835c780] frame P:431   Avg QP:22.22  size:  9121
[libx264 @ 0x55600835c780] frame B:1211  Avg QP:24.55  size:  2377
[libx264 @ 0x55600835c780] consecutive B-frames:  1.3%  2.3%  3.1% 93.3%
[libx264 @ 0x55600835c780] mb I  I16..4: 10.3% 69.2% 20.5%
[libx264 @ 0x55600835c780] mb P  I16..4:  1.5%  6.4%  1.0%  P16..4: 40.5% 13.4%  7.4%  0.0%  0.0%    skip:29.7%
[libx264 @ 0x55600835c780] mb B  I16..4:  1.7%  2.3%  0.1%  B16..8: 25.1%  3.8%  0.2%  direct: 8.6%  skip:58.1%  L0:41.6% L1:51.4% BI: 7.0%
[libx264 @ 0x55600835c780] 8x8 transform intra:63.5% inter:73.5%
[libx264 @ 0x55600835c780] coded y,uvDC,uvAC intra: 44.1% 60.0% 18.6% inter: 9.4% 15.7% 1.0%
[libx264 @ 0x55600835c780] i16 v,h,dc,p: 43% 24% 16% 17%
[libx264 @ 0x55600835c780] i8 v,h,dc,ddl,ddr,vr,hd,vl,hu: 25% 16% 26%  4%  6%  7%  7%  5%  5%
[libx264 @ 0x55600835c780] i4 v,h,dc,ddl,ddr,vr,hd,vl,hu: 31% 17% 13%  5%  8%  8%  7%  5%  5%
[libx264 @ 0x55600835c780] i8c dc,h,v,p: 56% 19% 22%  3%
[libx264 @ 0x55600835c780] Weighted P-Frames: Y:1.6% UV:0.9%
[libx264 @ 0x55600835c780] ref P L0: 73.7% 26.3%
[libx264 @ 0x55600835c780] ref B L0: 86.5% 13.5%
[libx264 @ 0x55600835c780] ref B L1: 95.7%  4.3%
[libx264 @ 0x55600835c780] kb/s:862.67
[aac @ 0x55600909e080] Qavg: 1681.660
